<svg width="1693" height="651" xmlns="http://www.w3.org/2000/svg"><g><path d="M-49,-17L-70,186L-58,127Z" fill="#fffba4" stroke="#fffba4"/><path d="M-49,-17L-58,127L-37,59Z" fill="#fffdb3" stroke="#fffdb3"/><path d="M-49,-17L-37,59L46,64Z" fill="#fffeb7" stroke="#fffeb7"/><path d="M-49,-17L46,64L10,-69Z" fill="#ffffc6" stroke="#ffffc6"/><path d="M10,-69L46,64L104,17Z" fill="#fffbbb" stroke="#fffbbb"/><path d="M10,-69L104,17L129,-65Z" fill="#fff9c8" stroke="#fff9c8"/><path d="M10,-69L129,-65L275,-68Z" fill="#fff5c7" stroke="#fff5c7"/><path d="M10,-69L275,-68L699,-68Z" fill="#ffe7af" stroke="#ffe7af"/><path d="M10,-69L699,-68L1635,-67Z" fill="#fcba99" stroke="#fcba99"/><path d="M129,-65L104,17L187,41Z" fill="#fff5b2" stroke="#fff5b2"/><path d="M129,-65L187,41L222,-40Z" fill="#fff2b5" stroke="#fff2b5"/><path d="M129,-65L222,-40L275,-68Z" fill="#fff0be" stroke="#fff0be"/><path d="M222,-40L187,41L309,62Z" fill="#ffec9c" stroke="#ffec9c"/><path d="M222,-40L309,62L275,-68Z" fill="#ffeba7" stroke="#ffeba7"/><path d="M275,-68L309,62L370,-17Z" fill="#ffe79e" stroke="#ffe79e"/><path d="M275,-68L370,-17L440,-52Z" fill="#ffe4a9" stroke="#ffe4a9"/><path d="M275,-68L440,-52L582,-67Z" fill="#ffdda9" stroke="#ffdda9"/><path d="M275,-68L582,-67L699,-68Z" fill="#fed5a5" stroke="#fed5a5"/><path d="M370,-17L309,62L375,58Z" fill="#ffe38a" stroke="#ffe38a"/><path d="M370,-17L375,58L461,14Z" fill="#ffdf8e" stroke="#ffdf8e"/><path d="M370,-17L461,14L440,-52Z" fill="#ffde9c" stroke="#ffde9c"/><path d="M440,-52L461,14L528,-24Z" fill="#ffd99a" stroke="#ffd99a"/><path d="M440,-52L528,-24L582,-67Z" fill="#fed5a3" stroke="#fed5a3"/><path d="M528,-24L461,14L501,18Z" fill="#ffd790" stroke="#ffd790"/><path d="M528,-24L501,18L581,24Z" fill="#fed38c" stroke="#fed38c"/><path d="M528,-24L581,24L582,-67Z" fill="#fed197" stroke="#fed197"/><path d="M582,-67L581,24L699,-68Z" fill="#fecc99" stroke="#fecc99"/><path d="M699,-68L581,24L656,56Z" fill="#fec988" stroke="#fec988"/><path d="M699,-68L656,56L750,-13Z" fill="#fec38b" stroke="#fec38b"/><path d="M699,-68L750,-13L867,-58Z" fill="#fcbb97" stroke="#fcbb97"/><path d="M699,-68L867,-58L1467,-58Z" fill="#f89e90" stroke="#f89e90"/><path d="M699,-68L1467,-58L1635,-67Z" fill="#e58792" stroke="#e58792"/><path d="M750,-13L656,56L749,45Z" fill="#fdc07b" stroke="#fdc07b"/><path d="M750,-13L749,45L818,39Z" fill="#fcba7b" stroke="#fcba7b"/><path d="M750,-13L818,39L867,-58Z" fill="#fcb687" stroke="#fcb687"/><path d="M867,-58L818,39L900,-37Z" fill="#fbb088" stroke="#fbb088"/><path d="M867,-58L900,-37L1022,-33Z" fill="#f9a88f" stroke="#f9a88f"/><path d="M867,-58L1022,-33L1075,-42Z" fill="#f8a18d" stroke="#f8a18d"/><path d="M867,-58L1075,-42L1214,-51Z" fill="#f59a8f" stroke="#f59a8f"/><path d="M867,-58L1214,-51L1467,-58Z" fill="#eb8f91" stroke="#eb8f91"/><path d="M900,-37L818,39L914,58Z" fill="#faad78" stroke="#faad78"/><path d="M900,-37L914,58L1006,15Z" fill="#f9a679" stroke="#f9a679"/><path d="M900,-37L1006,15L1022,-33Z" fill="#f9a283" stroke="#f9a283"/><path d="M1022,-33L1006,15L1075,-42Z" fill="#f69c82" stroke="#f69c82"/><path d="M1075,-42L1006,15L1078,51Z" fill="#f59a78" stroke="#f59a78"/><path d="M1075,-42L1078,51L1140,-21Z" fill="#f2967c" stroke="#f2967c"/><path d="M1075,-42L1140,-21L1214,-51Z" fill="#ee928a" stroke="#ee928a"/><path d="M1140,-21L1078,51L1163,55Z" fill="#ef9270" stroke="#ef9270"/><path d="M1140,-21L1163,55L1214,-51Z" fill="#ec907e" stroke="#ec907e"/><path d="M1214,-51L1163,55L1256,42Z" fill="#e98c76" stroke="#e98c76"/><path d="M1214,-51L1256,42L1329,-48Z" fill="#e58784" stroke="#e58784"/><path d="M1214,-51L1329,-48L1467,-58Z" fill="#e08192" stroke="#e08192"/><path d="M1329,-48L1256,42L1322,47Z" fill="#e28477" stroke="#e28477"/><path d="M1329,-48L1322,47L1391,-11Z" fill="#df807f" stroke="#df807f"/><path d="M1329,-48L1391,-11L1467,-58Z" fill="#db808d" stroke="#db808d"/><path d="M1391,-11L1322,47L1375,53Z" fill="#de7e72" stroke="#de7e72"/><path d="M1391,-11L1375,53L1486,51Z" fill="#da7e71" stroke="#da7e71"/><path d="M1391,-11L1486,51L1467,-58Z" fill="#d78081" stroke="#d78081"/><path d="M1467,-58L1486,51L1569,-60Z" fill="#d38088" stroke="#d38088"/><path d="M1467,-58L1569,-60L1635,-67Z" fill="#cf8095" stroke="#cf8095"/><path d="M1569,-60L1486,51L1533,60Z" fill="#d17f78" stroke="#d17f78"/><path d="M1569,-60L1533,60L1663,41Z" fill="#cd7f7a" stroke="#cd7f7a"/><path d="M1569,-60L1663,41L1635,-67Z" fill="#ca808b" stroke="#ca808b"/><path d="M1635,-67L1663,41L1714,-50Z" fill="#c6808a" stroke="#c6808a"/><path d="M1635,-67L1714,-50L1822,-56Z" fill="#c28096" stroke="#c28096"/><path d="M1714,-50L1663,41L1745,24Z" fill="#c4807e" stroke="#c4807e"/><path d="M1714,-50L1745,24L1822,-56Z" fill="#c0808c" stroke="#c0808c"/><path d="M1822,-56L1745,24L1773,68Z" fill="#be7f7d" stroke="#be7f7d"/><path d="M1822,-56L1773,68L1821,143Z" fill="#bc7d6d" stroke="#bc7d6d"/><path d="M1822,-56L1821,143L1823,184Z" fill="#bb7c5e" stroke="#bb7c5e"/><path d="M-37,59L-58,127L23,94Z" fill="#fffba1" stroke="#fffba1"/><path d="M-37,59L23,94L46,64Z" fill="#fffba5" stroke="#fffba5"/><path d="M46,64L23,94L100,178Z" fill="#fff690" stroke="#fff690"/><path d="M46,64L100,178L142,148Z" fill="#fff284" stroke="#fff284"/><path d="M46,64L142,148L104,17Z" fill="#fff499" stroke="#fff499"/><path d="M104,17L142,148L187,41Z" fill="#fff196" stroke="#fff196"/><path d="M187,41L142,148L228,99Z" fill="#ffed86" stroke="#ffed86"/><path d="M187,41L228,99L309,62Z" fill="#ffea8a" stroke="#ffea8a"/><path d="M309,62L228,99L288,150Z" fill="#ffe677" stroke="#ffe677"/><path d="M309,62L288,150L368,148Z" fill="#ffe26b" stroke="#ffe26b"/><path d="M309,62L368,148L375,58Z" fill="#ffe174" stroke="#ffe174"/><path d="M375,58L368,148L420,145Z" fill="#ffdc67" stroke="#ffdc67"/><path d="M375,58L420,145L461,14Z" fill="#ffdb78" stroke="#ffdb78"/><path d="M461,14L420,145L525,132Z" fill="#ffd56c" stroke="#ffd56c"/><path d="M461,14L525,132L501,18Z" fill="#ffd57b" stroke="#ffd57b"/><path d="M501,18L525,132L581,24Z" fill="#fed178" stroke="#fed178"/><path d="M581,24L525,132L618,138Z" fill="#fecb66" stroke="#fecb66"/><path d="M581,24L618,138L656,56Z" fill="#fec86f" stroke="#fec86f"/><path d="M656,56L618,138L708,113Z" fill="#fec361" stroke="#fec361"/><path d="M656,56L708,113L749,45Z" fill="#febf6b" stroke="#febf6b"/><path d="M749,45L708,113L761,112Z" fill="#fdbb62" stroke="#fdbb62"/><path d="M749,45L761,112L818,39Z" fill="#fcb76a" stroke="#fcb76a"/><path d="M818,39L761,112L823,148Z" fill="#fcb35c" stroke="#fcb35c"/><path d="M818,39L823,148L914,58Z" fill="#fbad61" stroke="#fbad61"/><path d="M914,58L823,148L942,93Z" fill="#faa858" stroke="#faa858"/><path d="M914,58L942,93L1006,15Z" fill="#f9a267" stroke="#f9a267"/><path d="M1006,15L942,93L991,129Z" fill="#f89e5d" stroke="#f89e5d"/><path d="M1006,15L991,129L1078,51Z" fill="#f79961" stroke="#f79961"/><path d="M1078,51L991,129L1074,131Z" fill="#f59552" stroke="#f59552"/><path d="M1078,51L1074,131L1132,122Z" fill="#f29253" stroke="#f29253"/><path d="M1078,51L1132,122L1163,55Z" fill="#f0905d" stroke="#f0905d"/><path d="M1163,55L1132,122L1266,120Z" fill="#eb8a55" stroke="#eb8a55"/><path d="M1163,55L1266,120L1256,42Z" fill="#e88760" stroke="#e88760"/><path d="M1256,42L1266,120L1322,47Z" fill="#e48361" stroke="#e48361"/><path d="M1322,47L1266,120L1297,139Z" fill="#e38054" stroke="#e38054"/><path d="M1322,47L1297,139L1392,124Z" fill="#e07c54" stroke="#e07c54"/><path d="M1322,47L1392,124L1375,53Z" fill="#de7c60" stroke="#de7c60"/><path d="M1375,53L1392,124L1451,116Z" fill="#da7b57" stroke="#da7b57"/><path d="M1375,53L1451,116L1486,51Z" fill="#d87c61" stroke="#d87c61"/><path d="M1486,51L1451,116L1533,60Z" fill="#d47c60" stroke="#d47c60"/><path d="M1533,60L1451,116L1589,128Z" fill="#d17b57" stroke="#d17b57"/><path d="M1533,60L1589,128L1663,41Z" fill="#cc7c61" stroke="#cc7c61"/><path d="M1663,41L1589,128L1668,143Z" fill="#c97b57" stroke="#c97b57"/><path d="M1663,41L1668,143L1740,139Z" fill="#c57b56" stroke="#c57b56"/><path d="M1663,41L1740,139L1773,68Z" fill="#c27c60" stroke="#c27c60"/><path d="M1663,41L1773,68L1745,24Z" fill="#c27e6f" stroke="#c27e6f"/><path d="M1773,68L1740,139L1821,143Z" fill="#be7a53" stroke="#be7a53"/><path d="M-58,127L-70,186L31,203Z" fill="#ffed8e" stroke="#ffed8e"/><path d="M-58,127L31,203L23,94Z" fill="#fff68e" stroke="#fff68e"/><path d="M23,94L31,203L100,178Z" fill="#ffed85" stroke="#ffed85"/><path d="M142,148L100,178L195,206Z" fill="#ffe176" stroke="#ffe176"/><path d="M142,148L195,206L228,99Z" fill="#ffe575" stroke="#ffe575"/><path d="M228,99L195,206L276,178Z" fill="#ffdf6e" stroke="#ffdf6e"/><path d="M228,99L276,178L288,150Z" fill="#ffe26c" stroke="#ffe26c"/><path d="M288,150L276,178L341,209Z" fill="#ffd562" stroke="#ffd562"/><path d="M288,150L341,209L368,148Z" fill="#ffd560" stroke="#ffd560"/><path d="M368,148L341,209L421,182Z" fill="#ffce5c" stroke="#ffce5c"/><path d="M368,148L421,182L420,145Z" fill="#ffd25e" stroke="#ffd25e"/><path d="M420,145L421,182L525,132Z" fill="#ffce5c" stroke="#ffce5c"/><path d="M525,132L421,182L541,188Z" fill="#ffc758" stroke="#ffc758"/><path d="M525,132L541,188L618,138Z" fill="#fec557" stroke="#fec557"/><path d="M618,138L541,188L572,207Z" fill="#febc52" stroke="#febc52"/><path d="M618,138L572,207L672,221Z" fill="#feb54f" stroke="#feb54f"/><path d="M618,138L672,221L708,113Z" fill="#feb951" stroke="#feb951"/><path d="M708,113L672,221L762,208Z" fill="#fead4c" stroke="#fead4c"/><path d="M708,113L762,208L761,112Z" fill="#fdb450" stroke="#fdb450"/><path d="M761,112L762,208L823,148Z" fill="#fcac4c" stroke="#fcac4c"/><path d="M823,148L762,208L856,178Z" fill="#fca248" stroke="#fca248"/><path d="M823,148L856,178L942,93Z" fill="#faa64b" stroke="#faa64b"/><path d="M942,93L856,178L927,177Z" fill="#fa9f48" stroke="#fa9f48"/><path d="M942,93L927,177L991,129Z" fill="#f99e49" stroke="#f99e49"/><path d="M991,129L927,177L1022,217Z" fill="#f88f42" stroke="#f88f42"/><path d="M991,129L1022,217L1061,206Z" fill="#f7873f" stroke="#f7873f"/><path d="M991,129L1061,206L1074,131Z" fill="#f68e43" stroke="#f68e43"/><path d="M1074,131L1061,206L1161,189Z" fill="#f28341" stroke="#f28341"/><path d="M1074,131L1161,189L1132,122Z" fill="#f08945" stroke="#f08945"/><path d="M1132,122L1161,189L1220,183Z" fill="#ec8043" stroke="#ec8043"/><path d="M1132,122L1220,183L1266,120Z" fill="#e98347" stroke="#e98347"/><path d="M1266,120L1220,183L1297,139Z" fill="#e57d46" stroke="#e57d46"/><path d="M1297,139L1220,183L1340,194Z" fill="#e37443" stroke="#e37443"/><path d="M1297,139L1340,194L1376,172Z" fill="#e07044" stroke="#e07044"/><path d="M1297,139L1376,172L1392,124Z" fill="#de7548" stroke="#de7548"/><path d="M1392,124L1376,172L1451,116Z" fill="#da7849" stroke="#da7849"/><path d="M1451,116L1376,172L1472,201Z" fill="#d87045" stroke="#d87045"/><path d="M1451,116L1472,201L1589,128Z" fill="#d37549" stroke="#d37549"/><path d="M1589,128L1472,201L1546,225Z" fill="#d16a43" stroke="#d16a43"/><path d="M1589,128L1546,225L1626,217Z" fill="#cd6943" stroke="#cd6943"/><path d="M1589,128L1626,217L1668,143Z" fill="#ca7048" stroke="#ca7048"/><path d="M1668,143L1626,217L1730,184Z" fill="#c66b45" stroke="#c66b45"/><path d="M1668,143L1730,184L1740,139Z" fill="#c37349" stroke="#c37349"/><path d="M1740,139L1730,184L1823,184Z" fill="#bf6f48" stroke="#bf6f48"/><path d="M1740,139L1823,184L1821,143Z" fill="#bd734a" stroke="#bd734a"/><path d="M-70,186L-36,758L-43,611Z" fill="#f18076" stroke="#f18076"/><path d="M-70,186L-43,611L-54,347Z" fill="#ffa674" stroke="#ffa674"/><path d="M-70,186L-54,347L-12,262Z" fill="#ffd282" stroke="#ffd282"/><path d="M-70,186L-12,262L31,203Z" fill="#ffe085" stroke="#ffe085"/><path d="M31,203L-12,262L64,268Z" fill="#ffd67c" stroke="#ffd67c"/><path d="M31,203L64,268L100,178Z" fill="#ffdb7b" stroke="#ffdb7b"/><path d="M100,178L64,268L93,298Z" fill="#ffd174" stroke="#ffd174"/><path d="M100,178L93,298L195,206Z" fill="#ffd471" stroke="#ffd471"/><path d="M195,206L93,298L211,291Z" fill="#ffc667" stroke="#ffc667"/><path d="M195,206L211,291L277,287Z" fill="#ffc260" stroke="#ffc260"/><path d="M195,206L277,287L276,178Z" fill="#ffcb63" stroke="#ffcb63"/><path d="M276,178L277,287L341,209Z" fill="#ffc85c" stroke="#ffc85c"/><path d="M341,209L277,287L335,281Z" fill="#ffbc54" stroke="#ffbc54"/><path d="M341,209L335,281L447,276Z" fill="#ffb851" stroke="#ffb851"/><path d="M341,209L447,276L421,182Z" fill="#ffbf54" stroke="#ffbf54"/><path d="M421,182L447,276L541,188Z" fill="#ffbb52" stroke="#ffbb52"/><path d="M541,188L447,276L504,283Z" fill="#ffaf4c" stroke="#ffaf4c"/><path d="M541,188L504,283L572,207Z" fill="#feb24d" stroke="#feb24d"/><path d="M572,207L504,283L607,294Z" fill="#fea547" stroke="#fea547"/><path d="M572,207L607,294L672,221Z" fill="#fea648" stroke="#fea648"/><path d="M672,221L607,294L667,298Z" fill="#fe9942" stroke="#fe9942"/><path d="M672,221L667,298L737,271Z" fill="#fe9841" stroke="#fe9841"/><path d="M672,221L737,271L762,208Z" fill="#fd9d44" stroke="#fd9d44"/><path d="M762,208L737,271L867,254Z" fill="#fc9240" stroke="#fc9240"/><path d="M762,208L867,254L856,178Z" fill="#fb9643" stroke="#fb9643"/><path d="M856,178L867,254L927,177Z" fill="#fa9242" stroke="#fa9242"/><path d="M927,177L867,254L931,279Z" fill="#fa863c" stroke="#fa863c"/><path d="M927,177L931,279L1022,217Z" fill="#f9833c" stroke="#f9833c"/><path d="M1022,217L931,279L1018,265Z" fill="#f87736" stroke="#f87736"/><path d="M1022,217L1018,265L1061,206Z" fill="#f67938" stroke="#f67938"/><path d="M1061,206L1018,265L1071,305Z" fill="#f56f35" stroke="#f56f35"/><path d="M1061,206L1071,305L1153,265Z" fill="#f26b35" stroke="#f26b35"/><path d="M1061,206L1153,265L1161,189Z" fill="#f0743b" stroke="#f0743b"/><path d="M1161,189L1153,265L1220,183Z" fill="#ec723c" stroke="#ec723c"/><path d="M1220,183L1153,265L1216,297Z" fill="#ea6637" stroke="#ea6637"/><path d="M1220,183L1216,297L1344,254Z" fill="#e56138" stroke="#e56138"/><path d="M1220,183L1344,254L1340,194Z" fill="#e2673e" stroke="#e2673e"/><path d="M1340,194L1344,254L1376,172Z" fill="#de643f" stroke="#de643f"/><path d="M1376,172L1344,254L1472,201Z" fill="#db633f" stroke="#db633f"/><path d="M1472,201L1344,254L1401,309Z" fill="#da5638" stroke="#da5638"/><path d="M1472,201L1401,309L1504,257Z" fill="#d65638" stroke="#d65638"/><path d="M1472,201L1504,257L1546,225Z" fill="#d35e3d" stroke="#d35e3d"/><path d="M1546,225L1504,257L1577,266Z" fill="#d0573a" stroke="#d0573a"/><path d="M1546,225L1577,266L1626,217Z" fill="#cd5b3c" stroke="#cd5b3c"/><path d="M1626,217L1577,266L1644,260Z" fill="#cb583b" stroke="#cb583b"/><path d="M1626,217L1644,260L1692,251Z" fill="#c8593c" stroke="#c8593c"/><path d="M1626,217L1692,251L1730,184Z" fill="#c66140" stroke="#c66140"/><path d="M1730,184L1692,251L1814,258Z" fill="#c15d3f" stroke="#c15d3f"/><path d="M1730,184L1814,258L1823,184Z" fill="#be6342" stroke="#be6342"/><path d="M1823,184L1814,258L1816,353Z" fill="#bb533a" stroke="#bb533a"/><path d="M1823,184L1816,353L1821,506Z" fill="#bb3330" stroke="#bb3330"/><path d="M1823,184L1821,506L1821,575Z" fill="#b81b2b" stroke="#b81b2b"/><path d="M-12,262L-54,347L34,369Z" fill="#ffbb76" stroke="#ffbb76"/><path d="M-12,262L34,369L64,268Z" fill="#ffc374" stroke="#ffc374"/><path d="M64,268L34,369L93,298Z" fill="#ffbb6e" stroke="#ffbb6e"/><path d="M93,298L34,369L122,389Z" fill="#ffab67" stroke="#ffab67"/><path d="M93,298L122,389L170,373Z" fill="#ffa760" stroke="#ffa760"/><path d="M93,298L170,373L211,291Z" fill="#ffb161" stroke="#ffb161"/><path d="M211,291L170,373L252,347Z" fill="#ffa758" stroke="#ffa758"/><path d="M211,291L252,347L277,287Z" fill="#ffaf57" stroke="#ffaf57"/><path d="M277,287L252,347L342,337Z" fill="#ffa650" stroke="#ffa650"/><path d="M277,287L342,337L335,281Z" fill="#ffac4f" stroke="#ffac4f"/><path d="M335,281L342,337L447,276Z" fill="#ffa94b" stroke="#ffa94b"/><path d="M447,276L342,337L456,362Z" fill="#ff9b46" stroke="#ff9b46"/><path d="M447,276L456,362L504,283Z" fill="#ff9d46" stroke="#ff9d46"/><path d="M504,283L456,362L544,380Z" fill="#ff8d40" stroke="#ff8d40"/><path d="M504,283L544,380L607,294Z" fill="#fe9040" stroke="#fe9040"/><path d="M607,294L544,380L613,339Z" fill="#fe863c" stroke="#fe863c"/><path d="M607,294L613,339L667,298Z" fill="#fe8c3e" stroke="#fe8c3e"/><path d="M667,298L613,339L694,347Z" fill="#fe833a" stroke="#fe833a"/><path d="M667,298L694,347L737,271Z" fill="#fe873b" stroke="#fe873b"/><path d="M737,271L694,347L781,358Z" fill="#fd7b37" stroke="#fd7b37"/><path d="M737,271L781,358L867,254Z" fill="#fc7f38" stroke="#fc7f38"/><path d="M867,254L781,358L834,382Z" fill="#fb6e33" stroke="#fb6e33"/><path d="M867,254L834,382L907,367Z" fill="#fb6730" stroke="#fb6730"/><path d="M867,254L907,367L931,279Z" fill="#fa7133" stroke="#fa7133"/><path d="M931,279L907,367L977,338Z" fill="#f9622e" stroke="#f9622e"/><path d="M931,279L977,338L1018,265Z" fill="#f96a31" stroke="#f96a31"/><path d="M1018,265L977,338L1071,305Z" fill="#f7612e" stroke="#f7612e"/><path d="M1071,305L977,338L1079,380Z" fill="#f6512a" stroke="#f6512a"/><path d="M1071,305L1079,380L1147,373Z" fill="#f14829" stroke="#f14829"/><path d="M1071,305L1147,373L1153,265Z" fill="#f0542e" stroke="#f0542e"/><path d="M1153,265L1147,373L1216,297Z" fill="#ec512f" stroke="#ec512f"/><path d="M1216,297L1147,373L1266,331Z" fill="#e9452c" stroke="#e9452c"/><path d="M1216,297L1266,331L1344,254Z" fill="#e44f32" stroke="#e44f32"/><path d="M1344,254L1266,331L1332,363Z" fill="#e1432f" stroke="#e1432f"/><path d="M1344,254L1332,363L1401,309Z" fill="#de4231" stroke="#de4231"/><path d="M1401,309L1332,363L1384,356Z" fill="#dd352c" stroke="#dd352c"/><path d="M1401,309L1384,356L1486,357Z" fill="#d9362d" stroke="#d9362d"/><path d="M1401,309L1486,357L1504,257Z" fill="#d64232" stroke="#d64232"/><path d="M1504,257L1486,357L1538,369Z" fill="#d33b30" stroke="#d33b30"/><path d="M1504,257L1538,369L1577,266Z" fill="#d04634" stroke="#d04634"/><path d="M1577,266L1538,369L1637,374Z" fill="#cd382f" stroke="#cd382f"/><path d="M1577,266L1637,374L1644,260Z" fill="#ca4534" stroke="#ca4534"/><path d="M1644,260L1637,374L1692,251Z" fill="#c74735" stroke="#c74735"/><path d="M1692,251L1637,374L1723,379Z" fill="#c53830" stroke="#c53830"/><path d="M1692,251L1723,379L1814,258Z" fill="#c14736" stroke="#c14736"/><path d="M1814,258L1723,379L1816,353Z" fill="#be3a32" stroke="#be3a32"/><path d="M-54,347L-43,611L-42,442Z" fill="#f68e74" stroke="#f68e74"/><path d="M-54,347L-42,442L34,369Z" fill="#ffa46f" stroke="#ffa46f"/><path d="M34,369L-42,442L66,427Z" fill="#fd9b6a" stroke="#fd9b6a"/><path d="M34,369L66,427L122,389Z" fill="#ff9c63" stroke="#ff9c63"/><path d="M122,389L66,427L134,448Z" fill="#fc9260" stroke="#fc9260"/><path d="M122,389L134,448L178,432Z" fill="#fc8f5b" stroke="#fc8f5b"/><path d="M122,389L178,432L170,373Z" fill="#fe9558" stroke="#fe9558"/><path d="M170,373L178,432L258,417Z" fill="#fd8f53" stroke="#fd8f53"/><path d="M170,373L258,417L252,347Z" fill="#ff9651" stroke="#ff9651"/><path d="M252,347L258,417L342,337Z" fill="#ff964b" stroke="#ff964b"/><path d="M342,337L258,417L332,450Z" fill="#fe8845" stroke="#fe8845"/><path d="M342,337L332,450L431,441Z" fill="#fd8140" stroke="#fd8140"/><path d="M342,337L431,441L456,362Z" fill="#ff873f" stroke="#ff873f"/><path d="M456,362L431,441L512,446Z" fill="#fc763c" stroke="#fc763c"/><path d="M456,362L512,446L544,380Z" fill="#fe7839" stroke="#fe7839"/><path d="M544,380L512,446L579,447Z" fill="#fa6d38" stroke="#fa6d38"/><path d="M544,380L579,447L613,339Z" fill="#fe7336" stroke="#fe7336"/><path d="M613,339L579,447L681,469Z" fill="#fb6734" stroke="#fb6734"/><path d="M613,339L681,469L694,347Z" fill="#fe6d32" stroke="#fe6d32"/><path d="M694,347L681,469L776,434Z" fill="#fa5e30" stroke="#fa5e30"/><path d="M694,347L776,434L781,358Z" fill="#fd6530" stroke="#fd6530"/><path d="M781,358L776,434L834,382Z" fill="#fc5b2c" stroke="#fc5b2c"/><path d="M834,382L776,434L864,433Z" fill="#f8512c" stroke="#f8512c"/><path d="M834,382L864,433L907,367Z" fill="#fa5229" stroke="#fa5229"/><path d="M907,367L864,433L893,461Z" fill="#f7482a" stroke="#f7482a"/><path d="M907,367L893,461L989,452Z" fill="#f54228" stroke="#f54228"/><path d="M907,367L989,452L977,338Z" fill="#f94a26" stroke="#f94a26"/><path d="M977,338L989,452L1079,380Z" fill="#f84123" stroke="#f84123"/><path d="M1079,380L989,452L1092,462Z" fill="#f03225" stroke="#f03225"/><path d="M1079,380L1092,462L1147,373Z" fill="#ef3525" stroke="#ef3525"/><path d="M1147,373L1092,462L1148,467Z" fill="#ea2b25" stroke="#ea2b25"/><path d="M1147,373L1148,467L1252,467Z" fill="#e62626" stroke="#e62626"/><path d="M1147,373L1252,467L1266,331Z" fill="#e82f25" stroke="#e82f25"/><path d="M1266,331L1252,467L1332,363Z" fill="#e42b26" stroke="#e42b26"/><path d="M1332,363L1252,467L1336,470Z" fill="#dd1c27" stroke="#dd1c27"/><path d="M1332,363L1336,470L1422,436Z" fill="#da1b27" stroke="#da1b27"/><path d="M1332,363L1422,436L1384,356Z" fill="#dc2527" stroke="#dc2527"/><path d="M1384,356L1422,436L1486,357Z" fill="#d92628" stroke="#d92628"/><path d="M1486,357L1422,436L1508,432Z" fill="#d31e28" stroke="#d31e28"/><path d="M1486,357L1508,432L1538,369Z" fill="#d22528" stroke="#d22528"/><path d="M1538,369L1508,432L1549,436Z" fill="#ce1d28" stroke="#ce1d28"/><path d="M1538,369L1549,436L1637,374Z" fill="#cd2328" stroke="#cd2328"/><path d="M1637,374L1549,436L1636,446Z" fill="#c81c29" stroke="#c81c29"/><path d="M1637,374L1636,446L1723,379Z" fill="#c62129" stroke="#c62129"/><path d="M1723,379L1636,446L1746,437Z" fill="#c11b2a" stroke="#c11b2a"/><path d="M1723,379L1746,437L1806,429Z" fill="#bd1d2a" stroke="#bd1d2a"/><path d="M1723,379L1806,429L1816,353Z" fill="#be252b" stroke="#be252b"/><path d="M1816,353L1806,429L1821,506Z" fill="#b7192b" stroke="#b7192b"/><path d="M-42,442L-43,611L-14,516Z" fill="#f08074" stroke="#f08074"/><path d="M-42,442L-14,516L66,427Z" fill="#f78f6e" stroke="#f78f6e"/><path d="M66,427L-14,516L61,523Z" fill="#f4856a" stroke="#f4856a"/><path d="M66,427L61,523L134,448Z" fill="#f78863" stroke="#f78863"/><path d="M134,448L61,523L128,521Z" fill="#f37e62" stroke="#f37e62"/><path d="M134,448L128,521L178,432Z" fill="#f6835c" stroke="#f6835c"/><path d="M178,432L128,521L227,516Z" fill="#f37b58" stroke="#f37b58"/><path d="M178,432L227,516L258,417Z" fill="#f78152" stroke="#f78152"/><path d="M258,417L227,516L270,504Z" fill="#f5784f" stroke="#f5784f"/><path d="M258,417L270,504L332,450Z" fill="#f77b4a" stroke="#f77b4a"/><path d="M332,450L270,504L334,539Z" fill="#f26e48" stroke="#f26e48"/><path d="M332,450L334,539L412,502Z" fill="#f26b43" stroke="#f26b43"/><path d="M332,450L412,502L431,441Z" fill="#f67041" stroke="#f67041"/><path d="M431,441L412,502L506,506Z" fill="#f4663f" stroke="#f4663f"/><path d="M431,441L506,506L512,446Z" fill="#f6683c" stroke="#f6683c"/><path d="M512,446L506,506L579,447Z" fill="#f6633a" stroke="#f6633a"/><path d="M579,447L506,506L578,519Z" fill="#f35a3a" stroke="#f35a3a"/><path d="M579,447L578,519L681,469Z" fill="#f45837" stroke="#f45837"/><path d="M681,469L578,519L697,495Z" fill="#f25035" stroke="#f25035"/><path d="M681,469L697,495L776,434Z" fill="#f55032" stroke="#f55032"/><path d="M776,434L697,495L730,526Z" fill="#f24931" stroke="#f24931"/><path d="M776,434L730,526L843,520Z" fill="#f04130" stroke="#f04130"/><path d="M776,434L843,520L864,433Z" fill="#f3442d" stroke="#f3442d"/><path d="M864,433L843,520L893,461Z" fill="#f13d2b" stroke="#f13d2b"/><path d="M893,461L843,520L900,498Z" fill="#ee362c" stroke="#ee362c"/><path d="M893,461L900,498L989,452Z" fill="#f03629" stroke="#f03629"/><path d="M989,452L900,498L1011,514Z" fill="#ee2d28" stroke="#ee2d28"/><path d="M989,452L1011,514L1092,462Z" fill="#ed2826" stroke="#ed2826"/><path d="M1092,462L1011,514L1071,532Z" fill="#e81f27" stroke="#e81f27"/><path d="M1092,462L1071,532L1131,507Z" fill="#e51c27" stroke="#e51c27"/><path d="M1092,462L1131,507L1148,467Z" fill="#e62027" stroke="#e62027"/><path d="M1148,467L1131,507L1225,548Z" fill="#df1428" stroke="#df1428"/><path d="M1148,467L1225,548L1252,467Z" fill="#dd1428" stroke="#dd1428"/><path d="M1252,467L1225,548L1310,519Z" fill="#d70b28" stroke="#d70b28"/><path d="M1252,467L1310,519L1336,470Z" fill="#d70f28" stroke="#d70f28"/><path d="M1336,470L1310,519L1399,520Z" fill="#d20629" stroke="#d20629"/><path d="M1336,470L1399,520L1422,436Z" fill="#d20c29" stroke="#d20c29"/><path d="M1422,436L1399,520L1455,499Z" fill="#ce0a29" stroke="#ce0a29"/><path d="M1422,436L1455,499L1508,432Z" fill="#cf1229" stroke="#cf1229"/><path d="M1508,432L1455,499L1549,436Z" fill="#cb1229" stroke="#cb1229"/><path d="M1549,436L1455,499L1590,493Z" fill="#c70c2a" stroke="#c70c2a"/><path d="M1549,436L1590,493L1636,446Z" fill="#c4112a" stroke="#c4112a"/><path d="M1636,446L1590,493L1628,502Z" fill="#c00b2b" stroke="#c00b2b"/><path d="M1636,446L1628,502L1717,523Z" fill="#bc082b" stroke="#bc082b"/><path d="M1636,446L1717,523L1746,437Z" fill="#bb0e2b" stroke="#bb0e2b"/><path d="M1746,437L1717,523L1821,506Z" fill="#b4092c" stroke="#b4092c"/><path d="M1746,437L1821,506L1806,429Z" fill="#b6112c" stroke="#b6112c"/><path d="M-14,516L-43,611L33,615Z" fill="#e98072" stroke="#e98072"/><path d="M-14,516L33,615L61,523Z" fill="#ed7e6d" stroke="#ed7e6d"/><path d="M61,523L33,615L117,583Z" fill="#ea7a68" stroke="#ea7a68"/><path d="M61,523L117,583L128,521Z" fill="#ee7863" stroke="#ee7863"/><path d="M128,521L117,583L212,585Z" fill="#eb745d" stroke="#eb745d"/><path d="M128,521L212,585L227,516Z" fill="#ed7258" stroke="#ed7258"/><path d="M227,516L212,585L250,578Z" fill="#eb6e54" stroke="#eb6e54"/><path d="M227,516L250,578L270,504Z" fill="#ee6d51" stroke="#ee6d51"/><path d="M270,504L250,578L334,539Z" fill="#ed6a4c" stroke="#ed6a4c"/><path d="M334,539L250,578L298,667Z" fill="#e76a4c" stroke="#e76a4c"/><path d="M334,539L298,667L381,589Z" fill="#e76647" stroke="#e76647"/><path d="M334,539L381,589L412,502Z" fill="#ed6343" stroke="#ed6343"/><path d="M412,502L381,589L463,614Z" fill="#ea5f42" stroke="#ea5f42"/><path d="M412,502L463,614L506,506Z" fill="#ed5b3f" stroke="#ed5b3f"/><path d="M506,506L463,614L535,617Z" fill="#e9573f" stroke="#e9573f"/><path d="M506,506L535,617L578,519Z" fill="#ec543c" stroke="#ec543c"/><path d="M578,519L535,617L624,615Z" fill="#e8503b" stroke="#e8503b"/><path d="M578,519L624,615L655,598Z" fill="#e94c39" stroke="#e94c39"/><path d="M578,519L655,598L697,495Z" fill="#ed4a37" stroke="#ed4a37"/><path d="M697,495L655,598L730,526Z" fill="#ed4535" stroke="#ed4535"/><path d="M730,526L655,598L781,602Z" fill="#e84134" stroke="#e84134"/><path d="M730,526L781,602L833,579Z" fill="#e83a32" stroke="#e83a32"/><path d="M730,526L833,579L843,520Z" fill="#ea3830" stroke="#ea3830"/><path d="M843,520L833,579L900,498Z" fill="#ea312e" stroke="#ea312e"/><path d="M900,498L833,579L943,591Z" fill="#e72d2d" stroke="#e72d2d"/><path d="M900,498L943,591L1011,514Z" fill="#e8262a" stroke="#e8262a"/><path d="M1011,514L943,591L996,613Z" fill="#e3222a" stroke="#e3222a"/><path d="M1011,514L996,613L1071,532Z" fill="#e41d28" stroke="#e41d28"/><path d="M1071,532L996,613L1084,616Z" fill="#df1b29" stroke="#df1b29"/><path d="M1071,532L1084,616L1131,507Z" fill="#df1728" stroke="#df1728"/><path d="M1131,507L1084,616L1178,612Z" fill="#da1429" stroke="#da1429"/><path d="M1131,507L1178,612L1225,548Z" fill="#d91029" stroke="#d91029"/><path d="M1225,548L1178,612L1211,611Z" fill="#d30d2a" stroke="#d30d2a"/><path d="M1225,548L1211,611L1303,623Z" fill="#cf0a2b" stroke="#cf0a2b"/><path d="M1225,548L1303,623L1310,519Z" fill="#d0072a" stroke="#d0072a"/><path d="M1310,519L1303,623L1399,520Z" fill="#cd022b" stroke="#cd022b"/><path d="M1399,520L1303,623L1424,619Z" fill="#c6002c" stroke="#c6002c"/><path d="M1399,520L1424,619L1456,581Z" fill="#c4002c" stroke="#c4002c"/><path d="M1399,520L1456,581L1455,499Z" fill="#c8002b" stroke="#c8002b"/><path d="M1455,499L1456,581L1590,493Z" fill="#c4002b" stroke="#c4002b"/><path d="M1590,493L1456,581L1548,622Z" fill="#bd002c" stroke="#bd002c"/><path d="M1590,493L1548,622L1648,574Z" fill="#b8002d" stroke="#b8002d"/><path d="M1590,493L1648,574L1628,502Z" fill="#bb002c" stroke="#bb002c"/><path d="M1628,502L1648,574L1717,523Z" fill="#b6002d" stroke="#b6002d"/><path d="M1717,523L1648,574L1728,576Z" fill="#b1002e" stroke="#b1002e"/><path d="M1717,523L1728,576L1821,506Z" fill="#b0002e" stroke="#b0002e"/><path d="M1821,506L1728,576L1821,575Z" fill="#ab002f" stroke="#ab002f"/><path d="M-43,611L-36,758L-19,702Z" fill="#dd8078" stroke="#dd8078"/><path d="M-43,611L-19,702L23,669Z" fill="#e08075" stroke="#e08075"/><path d="M-43,611L23,669L33,615Z" fill="#e37f72" stroke="#e37f72"/><path d="M33,615L23,669L145,668Z" fill="#e17b6b" stroke="#e17b6b"/><path d="M33,615L145,668L117,583Z" fill="#e57866" stroke="#e57866"/><path d="M117,583L145,668L212,585Z" fill="#e6745e" stroke="#e6745e"/><path d="M212,585L145,668L176,672Z" fill="#e2725c" stroke="#e2725c"/><path d="M212,585L176,672L298,667Z" fill="#e26f56" stroke="#e26f56"/><path d="M212,585L298,667L250,578Z" fill="#e56d52" stroke="#e56d52"/><path d="M381,589L298,667L385,655Z" fill="#e26547" stroke="#e26547"/><path d="M381,589L385,655L463,614Z" fill="#e46044" stroke="#e46044"/><path d="M463,614L385,655L414,672Z" fill="#e15f44" stroke="#e15f44"/><path d="M463,614L414,672L529,690Z" fill="#e05a42" stroke="#e05a42"/><path d="M463,614L529,690L535,617Z" fill="#e15640" stroke="#e15640"/><path d="M535,617L529,690L603,683Z" fill="#df523e" stroke="#df523e"/><path d="M535,617L603,683L624,615Z" fill="#e24f3c" stroke="#e24f3c"/><path d="M624,615L603,683L654,682Z" fill="#df4b3b" stroke="#df4b3b"/><path d="M624,615L654,682L655,598Z" fill="#e24a39" stroke="#e24a39"/><path d="M655,598L654,682L745,651Z" fill="#e14638" stroke="#e14638"/><path d="M655,598L745,651L781,602Z" fill="#e34135" stroke="#e34135"/><path d="M781,602L745,651L863,709Z" fill="#dd3833" stroke="#dd3833"/><path d="M781,602L863,709L833,579Z" fill="#e03532" stroke="#e03532"/><path d="M833,579L863,709L905,702Z" fill="#db3031" stroke="#db3031"/><path d="M833,579L905,702L943,591Z" fill="#df2d2f" stroke="#df2d2f"/><path d="M943,591L905,702L1004,684Z" fill="#da262d" stroke="#da262d"/><path d="M943,591L1004,684L996,613Z" fill="#dd222b" stroke="#dd222b"/><path d="M996,613L1004,684L1084,616Z" fill="#da1d2a" stroke="#da1d2a"/><path d="M1084,616L1004,684L1073,693Z" fill="#d51a2b" stroke="#d51a2b"/><path d="M1084,616L1073,693L1148,683Z" fill="#d2162c" stroke="#d2162c"/><path d="M1084,616L1148,683L1178,612Z" fill="#d2132b" stroke="#d2132b"/><path d="M1178,612L1148,683L1223,659Z" fill="#cd0f2c" stroke="#cd0f2c"/><path d="M1178,612L1223,659L1211,611Z" fill="#ce0d2b" stroke="#ce0d2b"/><path d="M1211,611L1223,659L1303,623Z" fill="#cb0a2c" stroke="#cb0a2c"/><path d="M1303,623L1223,659L1317,657Z" fill="#c6072d" stroke="#c6072d"/><path d="M1303,623L1317,657L1424,619Z" fill="#c3012d" stroke="#c3012d"/><path d="M1424,619L1317,657L1395,676Z" fill="#be002d" stroke="#be002d"/><path d="M1424,619L1395,676L1463,662Z" fill="#bb002e" stroke="#bb002e"/><path d="M1424,619L1463,662L1456,581Z" fill="#bd002d" stroke="#bd002d"/><path d="M1456,581L1463,662L1548,622Z" fill="#ba002d" stroke="#ba002d"/><path d="M1548,622L1463,662L1535,665Z" fill="#b4002f" stroke="#b4002f"/><path d="M1548,622L1535,665L1669,688Z" fill="#ae002f" stroke="#ae002f"/><path d="M1548,622L1669,688L1648,574Z" fill="#af002f" stroke="#af002f"/><path d="M1648,574L1669,688L1696,666Z" fill="#a90030" stroke="#a90030"/><path d="M1648,574L1696,666L1728,576Z" fill="#ac002f" stroke="#ac002f"/><path d="M1728,576L1696,666L1805,688Z" fill="#a40031" stroke="#a40031"/><path d="M1728,576L1805,688L1821,575Z" fill="#a40030" stroke="#a40030"/><path d="M1821,575L1805,688L1806,744Z" fill="#9c0032" stroke="#9c0032"/><path d="M-19,702L-36,758L21,735Z" fill="#d88077" stroke="#d88077"/><path d="M-19,702L21,735L23,669Z" fill="#db7f74" stroke="#db7f74"/><path d="M23,669L21,735L94,734Z" fill="#da7c6f" stroke="#da7c6f"/><path d="M23,669L94,734L145,668Z" fill="#dd7969" stroke="#dd7969"/><path d="M145,668L94,734L173,755Z" fill="#d97564" stroke="#d97564"/><path d="M145,668L173,755L176,672Z" fill="#dc7360" stroke="#dc7360"/><path d="M176,672L173,755L299,755Z" fill="#d86f5a" stroke="#d86f5a"/><path d="M176,672L299,755L298,667Z" fill="#db6c54" stroke="#db6c54"/><path d="M298,667L299,755L338,745Z" fill="#d9684e" stroke="#d9684e"/><path d="M298,667L338,745L385,655Z" fill="#dc6649" stroke="#dc6649"/><path d="M385,655L338,745L414,672Z" fill="#dc6247" stroke="#dc6247"/><path d="M414,672L338,745L428,733Z" fill="#d96148" stroke="#d96148"/><path d="M414,672L428,733L529,690Z" fill="#db5b44" stroke="#db5b44"/><path d="M529,690L428,733L540,735Z" fill="#d95743" stroke="#d95743"/><path d="M529,690L540,735L603,683Z" fill="#da523f" stroke="#da523f"/><path d="M603,683L540,735L606,758Z" fill="#d8503f" stroke="#d8503f"/><path d="M603,683L606,758L654,682Z" fill="#da4c3c" stroke="#da4c3c"/><path d="M654,682L606,758L670,744Z" fill="#d74a3c" stroke="#d74a3c"/><path d="M654,682L670,744L745,651Z" fill="#db4539" stroke="#db4539"/><path d="M745,651L670,744L778,757Z" fill="#d84038" stroke="#d84038"/><path d="M745,651L778,757L863,709Z" fill="#d73835" stroke="#d73835"/><path d="M863,709L778,757L848,787Z" fill="#d23434" stroke="#d23434"/><path d="M863,709L848,787L944,749Z" fill="#d12e32" stroke="#d12e32"/><path d="M863,709L944,749L905,702Z" fill="#d42b31" stroke="#d42b31"/><path d="M905,702L944,749L976,741Z" fill="#d2272f" stroke="#d2272f"/><path d="M905,702L976,741L1004,684Z" fill="#d4242e" stroke="#d4242e"/><path d="M1004,684L976,741L1076,761Z" fill="#d11e2c" stroke="#d11e2c"/><path d="M1004,684L1076,761L1073,693Z" fill="#d01b2c" stroke="#d01b2c"/><path d="M1073,693L1076,761L1139,753Z" fill="#ca172d" stroke="#ca172d"/><path d="M1073,693L1139,753L1148,683Z" fill="#cb152d" stroke="#cb152d"/><path d="M1148,683L1139,753L1235,773Z" fill="#c4102e" stroke="#c4102e"/><path d="M1148,683L1235,773L1223,659Z" fill="#c60e2d" stroke="#c60e2d"/><path d="M1223,659L1235,773L1317,657Z" fill="#c2092d" stroke="#c2092d"/><path d="M1317,657L1235,773L1324,781Z" fill="#bb062f" stroke="#bb062f"/><path d="M1317,657L1324,781L1395,676Z" fill="#bb012f" stroke="#bb012f"/><path d="M1395,676L1324,781L1406,781Z" fill="#b40030" stroke="#b40030"/><path d="M1395,676L1406,781L1454,759Z" fill="#b10030" stroke="#b10030"/><path d="M1395,676L1454,759L1463,662Z" fill="#b5002f" stroke="#b5002f"/><path d="M1463,662L1454,759L1535,665Z" fill="#b1002f" stroke="#b1002f"/><path d="M1535,665L1454,759L1563,742Z" fill="#ac0031" stroke="#ac0031"/><path d="M1535,665L1563,742L1669,688Z" fill="#a90031" stroke="#a90031"/><path d="M1669,688L1563,742L1655,758Z" fill="#a30032" stroke="#a30032"/><path d="M1669,688L1655,758L1736,759Z" fill="#9e0033" stroke="#9e0033"/><path d="M1669,688L1736,759L1696,666Z" fill="#a00032" stroke="#a00032"/><path d="M1696,666L1736,759L1805,688Z" fill="#9d0032" stroke="#9d0032"/><path d="M1805,688L1736,759L1806,744Z" fill="#970033" stroke="#970033"/><path d="M-36,758L848,787L173,755Z" fill="#d3674d" stroke="#d3674d"/><path d="M-36,758L173,755L94,734Z" fill="#d67a6c" stroke="#d67a6c"/><path d="M-36,758L94,734L21,735Z" fill="#d77e72" stroke="#d77e72"/><path d="M173,755L848,787L299,755Z" fill="#d45d46" stroke="#d45d46"/><path d="M299,755L848,787L606,758Z" fill="#d34f40" stroke="#d34f40"/><path d="M299,755L606,758L338,745Z" fill="#d55f47" stroke="#d55f47"/><path d="M338,745L606,758L428,733Z" fill="#d65b45" stroke="#d65b45"/><path d="M428,733L606,758L540,735Z" fill="#d65542" stroke="#d65542"/><path d="M606,758L848,787L778,757Z" fill="#d13f38" stroke="#d13f38"/><path d="M606,758L778,757L670,744Z" fill="#d4463a" stroke="#d4463a"/><path d="M848,787L1406,781L1324,781Z" fill="#bd0e2f" stroke="#bd0e2f"/><path d="M848,787L1324,781L1235,773Z" fill="#c2132f" stroke="#c2132f"/><path d="M848,787L1235,773L1076,761Z" fill="#c91b2e" stroke="#c91b2e"/><path d="M848,787L1076,761L944,749Z" fill="#ce2530" stroke="#ce2530"/><path d="M944,749L1076,761L976,741Z" fill="#cf202d" stroke="#cf202d"/><path d="M1076,761L1235,773L1139,753Z" fill="#c3122e" stroke="#c3122e"/><path d="M1406,781L1736,759L1655,758Z" fill="#a10032" stroke="#a10032"/><path d="M1406,781L1655,758L1563,742Z" fill="#a60032" stroke="#a60032"/><path d="M1406,781L1563,742L1454,759Z" fill="#ab0031" stroke="#ab0031"/></g><filter id="noise"><feTurbulence type="fractalNoise" in="fillPaint" fill="#F00" baseFrequency="0.7" numOctaves="3" stitchTiles="stitch"/><feComponentTransfer><feFuncR type="linear" slope="2" intercept="-.5"/><feFuncG type="linear" slope="2" intercept="-.5"/><feFuncB type="linear" slope="2" intercept="-.5"/></feComponentTransfer><feColorMatrix type="matrix" values="0.3333 0.3333 0.3333 0 0 
 0.3333 0.3333 0.3333 0 0 
 0.3333 0.3333 0.3333 0 0 
 0 0 0 1 0"/></filter><rect opacity="0.20000000000000007" width="100%" height="100%" filter="url(#noise)"/></svg>